<mxfile host="app.diagrams.net" modified="2023-10-12T02:11:45.734Z" agent="Mozilla/5.0 (X11; Linux x86_64; rv:102.0) Gecko/20100101 Firefox/102.0" version="22.0.4" etag="Uc-Bz7MG0H1MqfHXf28t" type="github">
  <diagram name="第 1 页" id="Yz7k1QRQxPCicQdh6aeH">
    <mxGraphModel>
      <root>
        <mxCell id="0" />
        <mxCell id="1" parent="0" />
      </root>
    </mxGraphModel>
  </diagram>
</mxfile>
